<svg xmlns="http://www.w3.org/2000/svg" xmlns:xlink="http://www.w3.org/1999/xlink" xml:space="preserve" width="512px" height="512px" style="shape-rendering:geometricPrecision; text-rendering:geometricPrecision; image-rendering:optimizeQuality; fill-rule:evenodd; clip-rule:evenodd" viewBox="0 0 746.94 746.94"> <defs> <style type="text/css"> .fil1 {fill:none} .fil0 {fill:#FDFDFD} </style> </defs> <g id="Layer_x0020_1"> <metadata id="CorelCorpID_0Corel-Layer"></metadata> <path class="fil0" d="M295.91 364.21c0,51.49 67.87,65.27 108.78,81.58 62.28,24.82 112.41,68.9 80.42,141.31 -15.92,36.02 -58.88,58.44 -98.23,58.44 -33.02,0 -56.28,-1.89 -86.41,-14.67 -15.42,-6.54 -25.76,-12.12 -38.75,-21.9 -4.42,-3.33 -7.9,-7.56 -12.98,-8.92 0.18,-8.28 2.86,-10.32 6.39,-15.51 3.46,-5.07 5.61,-9.88 10.46,-13.13 14.92,3.48 60.96,56.1 138.52,37.45 10.34,-2.49 18.04,-6.1 26.09,-10.98 40.41,-24.47 41.71,-76.56 -10.77,-107.87 -49.99,-29.83 -158.9,-35.27 -158.9,-125.8 0,-28.3 17.33,-53.22 33.41,-65.99 36.64,-29.11 92.08,-30.57 136.52,-14.65 11.61,4.15 41.33,16.77 47.39,25.04 -1.33,5.71 -2.95,7.9 -6.05,12.49 -3.57,5.29 -4.62,7.48 -7.43,12.78 -15.3,-1.27 -35.37,-28.64 -97.71,-28.64 -34.54,0 -70.75,25.17 -70.75,58.97zm66.96 -362.2l23.05 0c24.76,2.05 49.71,10.79 72.95,27.4 4.65,3.32 6.83,5.57 11.08,9.14 16.36,13.76 7.7,6.39 20.13,20.3 24.05,26.94 45.05,73.09 45.05,121.73l153.3 0c20.86,0 12.77,33.93 11.78,52.22 -0.35,6.54 0.26,13.69 0.06,20.28 -0.25,8.48 -1.7,9.32 -1.8,18.41 -0.46,39.21 -4.46,78.22 -4.92,116.37 -0.11,9.08 -1.56,9.92 -1.81,18.41 -0.56,18.98 0.59,38.91 -2.34,58.3 -1.82,12.03 -0.71,27.36 -2.2,38.23l-2.15 38.28c-0.35,6.54 0.37,13.7 0.01,20.23 -1.65,30.68 -5.22,65.07 -5.02,96.06 0.32,49.94 -20.38,87.56 -74.16,87.56l-468.32 0c-28.63,0 -45.17,-9.93 -57.55,-26.68 -14,-18.95 -14.8,-37.66 -14.84,-69.4 -0.01,-9.75 -1.54,-11.48 -1.79,-20.1 -0.2,-6.66 0.31,-13.68 0.11,-20.33 -0.26,-8.63 -1.79,-10.36 -1.8,-20.1l-8.3 -200.6c-0.11,-9.08 -1.55,-9.92 -1.81,-18.4 -0.21,-7.14 0.45,-14.89 0.07,-21.97 -1.78,-32.84 -5.26,-67.13 -5.07,-99.38 0.18,-30.04 -9.98,-67.39 11.8,-67.39l153.3 0 0 -5.05c0,-26.49 7.54,-48.23 15.16,-67.39 24.14,-60.77 77.91,-101.34 136.03,-106.13zm-105.71 171.83c0,-97.83 120.12,-183.11 200.09,-85.53 34.99,42.7 30.4,84.62 34.08,92.27l-234.17 0 0 -6.74z"></path> <rect class="fil1" width="746.94" height="746.94"></rect> </g> </svg>